<?xml version="1.0" encoding="UTF-8" standalone="no"?>
<!-- Created with Inkscape (http://www.inkscape.org/) -->

<svg
   xmlns:dc="http://purl.org/dc/elements/1.1/"
   xmlns:cc="http://creativecommons.org/ns#"
   xmlns:rdf="http://www.w3.org/1999/02/22-rdf-syntax-ns#"
   xmlns:svg="http://www.w3.org/2000/svg"
   xmlns="http://www.w3.org/2000/svg"
   xmlns:sodipodi="http://sodipodi.sourceforge.net/DTD/sodipodi-0.dtd"
   xmlns:inkscape="http://www.inkscape.org/namespaces/inkscape"
   width="210mm"
   height="297mm"
   viewBox="0 0 210 297"
   version="1.1"
   id="svg1141"
   sodipodi:docname="edge-1.svg"
   inkscape:version="0.92.3 (2405546, 2018-03-11)">
  <defs
     id="defs1135" />
  <sodipodi:namedview
     id="base"
     pagecolor="#ffffff"
     bordercolor="#666666"
     borderopacity="1.0"
     inkscape:pageopacity="0.0"
     inkscape:pageshadow="2"
     inkscape:zoom="1.979899"
     inkscape:cx="271.10055"
     inkscape:cy="770.58099"
     inkscape:document-units="mm"
     inkscape:current-layer="layer1"
     showgrid="false"
     inkscape:window-width="1299"
     inkscape:window-height="713"
     inkscape:window-x="67"
     inkscape:window-y="27"
     inkscape:window-maximized="1" />
  <metadata
     id="metadata1138">
    <rdf:RDF>
      <cc:Work
         rdf:about="">
        <dc:format>image/svg+xml</dc:format>
        <dc:type
           rdf:resource="http://purl.org/dc/dcmitype/StillImage" />
      </cc:Work>
    </rdf:RDF>
  </metadata>
  <g
     inkscape:label="Layer 1"
     inkscape:groupmode="layer"
     id="layer1">
    <path
       id="path139-6-3"
       style="fill:#000000;stroke-width:0.26458341"
       d="m 62.99273,45.145142 c 0.16559,-1.626464 0.25776,-3.00052 0.204819,-3.053461 -0.117218,-0.117222 -1.969198,0.923521 -2.610337,1.466915 -0.254661,0.215837 -0.46302,0.553728 -0.46302,0.750867 0,0.393742 2.152218,3.778529 2.408208,3.787378 0.0876,0.003 0.294741,-1.325237 0.46033,-2.951699 z m -23.459182,2.361892 c 0.23781,-0.909505 0.378272,-1.709069 0.312136,-1.776807 -0.135633,-0.13892 -4.340364,1.284592 -4.678602,1.583941 -0.229519,0.20313 2.836869,1.787704 3.531532,1.824934 0.277221,0.0149 0.537165,-0.49326 0.834934,-1.632068 z m 3.921893,3.872718 c 0,-0.31921 -2.759134,-5.394072 -2.932684,-5.394072 -0.09746,0 -0.361256,0.730697 -0.586222,1.623769 -0.500319,1.986183 -0.371901,2.237043 1.629233,3.182733 1.590986,0.75186 1.889673,0.84474 1.889673,0.58757 z m 9.372753,-0.43313 c 0.570204,-4.429288 0.722388,-6.344215 0.517909,-6.516835 -0.371795,-0.313866 -11.773958,0.271631 -11.66484,0.598986 0.113073,0.339219 10.244409,6.997229 10.687654,7.023609 0.175726,0.0105 0.378397,-0.4775 0.459277,-1.10576 z m -1.051607,1.42539 c -0.449551,-0.40823 -10.245502,-6.650915 -10.436547,-6.650915 -0.245007,0 2.394525,5.132065 2.701486,5.252515 0.130544,0.0512 0.446481,0.31762 0.70208,0.59197 0.359245,0.3856 1.061512,0.55138 3.09401,0.73038 3.717215,0.32738 4.226563,0.33721 3.938971,0.076 z m -5.603164,4.56582 c 0.216056,-0.21605 -1.707533,-4.07298 -2.031345,-4.07298 -0.140611,0 -0.502657,-0.23205 -0.804545,-0.51566 -0.301889,-0.28361 -1.235985,-0.81952 -2.075768,-1.19091 -1.327712,-0.58718 -1.547629,-0.62119 -1.685956,-0.26071 -0.200705,0.52303 1.134926,4.04051 1.80042,4.74153 0.729045,0.76797 4.348164,1.74776 4.797194,1.29873 z m 5.865973,0.10147 c 0.52252,-0.746 0.520697,-2.81683 -0.0031,-3.513 -0.338745,-0.45022 -0.893044,-0.56897 -3.715573,-0.79597 -1.824587,-0.14675 -3.362525,-0.22172 -3.417641,-0.16661 -0.127496,0.1275 1.331658,3.07052 2.083313,4.20192 0.560478,0.84363 0.604362,0.85812 2.605597,0.85989 1.804619,0.002 2.08224,-0.0649 2.447396,-0.58623 z m 8.052202,-2.80265 c 2.614342,-5.21904 2.613263,-5.24326 -0.414047,-9.287257 -0.280123,-0.374198 -0.462521,0.760063 -1.529961,9.514217 -0.442397,3.62813 -0.465563,3.95748 -0.278363,3.95748 0.06946,0 1.069522,-1.883 2.222371,-4.18444 z m -1.932306,-3.14903 c 0.387049,-3.233041 0.625131,-6.191401 0.529072,-6.574132 -0.174067,-0.693537 -0.18106,-0.695258 -2.081393,-0.512458 -1.048706,0.100881 -2.044653,0.320805 -2.213216,0.488721 -0.32893,0.327669 -1.308991,7.509279 -1.058906,7.759359 0.23234,0.23234 2.820592,-1.76406 2.820592,-2.17562 0,-0.62126 0.916871,-0.94309 1.484805,-0.52118 0.399489,0.29678 0.440499,0.46699 0.204708,0.84964 -0.162176,0.26319 -0.538299,0.48226 -0.835829,0.48683 -0.746378,0.0115 -3.172992,1.71062 -3.336624,2.33635 -0.09046,0.34594 0.35411,1.14884 1.373016,2.47966 0.82874,1.08244 1.625862,2.14018 1.771383,2.35054 0.386097,0.55813 0.532239,-0.20042 1.342392,-6.96771 z m -1.482221,7.6642 c -0.0041,-0.10914 -0.867348,-1.27 -1.918229,-2.57969 l -1.910693,-2.38124 -0.08138,1.42976 c -0.126115,2.2156 0.243924,2.81644 2.022182,3.28346 1.850545,0.48601 1.897408,0.49216 1.888124,0.24771 z m -13.574139,0.66146 c 1.35797,-0.76398 2.469068,-1.45923 2.469106,-1.54498 1.52e-4,-0.34085 -4.056762,-1.27077 -4.502709,-1.03211 -0.56769,0.30382 -1.132957,3.96615 -0.612162,3.96615 0.0972,0 1.287794,-0.62508 2.645765,-1.38906 z m 16.148462,5.98432 c -0.102044,-0.102049 -0.185536,-0.52052 -0.185536,-0.929949 0,-0.941581 -1.321925,-4.196761 -1.700605,-4.187651 -0.454136,0.0109 -2.135854,2.6764 -2.135854,3.385281 0,0.91853 -0.840143,1.395399 -1.32024,0.749361 -0.411596,-0.553853 -0.257373,-1.231052 0.280356,-1.231052 0.19729,0 0.848396,-0.72109 1.446902,-1.60243 0.841989,-1.23989 1.020841,-1.68359 0.790504,-1.96113 -0.386839,-0.46611 -2.814153,-1.0768 -3.882969,-0.97691 -0.45835,0.0428 -0.911861,-0.0491 -1.007802,-0.20436 -0.226555,-0.36658 -4.289359,-0.37279 -4.515486,-0.007 -0.09359,0.15144 -0.386418,0.20671 -0.650717,0.12282 -0.622575,-0.19759 -5.402511,2.45347 -5.722279,3.17371 -0.31417,0.70763 -1.513786,0.72035 -1.649146,0.0175 -0.0542,-0.28143 0.107771,-0.66254 0.359927,-0.84692 0.314085,-0.22967 0.515465,-0.88591 0.639449,-2.08378 0.09954,-0.9617 0.112949,-1.79059 0.0298,-1.84198 -0.312127,-0.1929 -2.657674,1.78286 -2.657674,2.23869 0,0.53912 -0.598849,0.85489 -1.190626,0.6278 -0.478395,-0.18358 -0.534328,-1.40691 -0.06615,-1.44672 0.181901,-0.0155 0.509323,-0.0452 0.727604,-0.0661 0.440392,-0.0422 2.883802,-1.78602 2.900099,-2.06977 0.0119,-0.20718 -2.7761,-1.05652 -3.40515,-1.03734 -0.231545,0.007 -0.718647,0.0457 -1.082449,0.0858 -0.539847,0.0595 -0.676251,-0.0546 -0.741917,-0.62088 -0.106981,-0.92252 0.701049,-1.26649 1.283987,-0.54659 0.419864,0.51851 2.886213,1.37268 3.963495,1.37268 0.51,0 0.566978,-0.10344 0.431131,-0.78267 -0.08609,-0.43046 -0.560541,-1.65085 -1.054329,-2.71198 -0.493787,-1.06112 -0.959206,-2.10882 -1.034263,-2.32823 -0.175408,-0.51275 -2.703454,-1.45316 -3.906436,-1.45316 -0.811389,0 -0.926042,-0.08189 -0.926042,-0.661458 0,-0.555301 0.129607,-0.665705 0.80757,-0.687917 0.677879,-0.02221 5.410139,-1.623796 5.410139,-1.831008 0,-0.249401 -4.464354,-1.797072 -5.247727,-1.819245 -0.765279,-0.02166 -0.969982,-0.133043 -0.969982,-0.527786 0,-0.275182 0.215819,-0.632369 0.479597,-0.79375 0.388892,-0.237925 0.571957,-0.180947 0.967947,0.30127 0.488364,0.594705 4.672481,2.369314 4.94463,2.097166 0.228294,-0.228295 -2.349329,-4.940814 -2.702495,-4.940814 -0.485288,0 -0.939827,-0.676792 -0.76337,-1.136632 0.380224,-0.990847 1.878369,-0.617447 1.611845,0.401738 -0.07316,0.279774 0.394941,1.488353 1.083177,2.796609 1.386028,2.634682 1.344557,2.569968 1.528833,2.385691 0.34092,-0.340919 1.167652,-3.972442 1.11276,-4.887931 -0.05521,-0.920762 5e-5,-1.014683 0.596995,-1.014683 0.778934,0 1.073869,0.863253 0.450634,1.318974 -0.425731,0.311304 -1.716702,4.775572 -1.456296,5.035977 0.08334,0.08334 2.338818,0.02709 5.012176,-0.124996 2.673358,-0.152088 5.310872,-0.276592 5.861142,-0.276677 1.549324,-2.37e-4 1.524603,-0.57962 -0.09911,-2.322832 -0.775502,-0.832579 -1.682517,-1.62606 -2.015589,-1.763291 -0.697835,-0.287523 -0.836854,-1.398142 -0.205342,-1.640476 0.525043,-0.201478 1.187255,0.364135 1.187255,1.014065 0,0.590765 2.629059,3.695645 2.95744,3.492695 0.119658,-0.07395 0.21756,-1.031083 0.21756,-2.126955 0,-1.724391 -0.07714,-2.05496 -0.573288,-2.456717 -0.784517,-0.635263 -0.483877,-1.405849 0.504053,-1.291966 l 0.727522,0.08387 -0.08378,3.042708 -0.08378,3.042709 1.457571,-1.984375 c 0.801664,-1.091407 1.494921,-2.222501 1.54057,-2.513542 0.05739,-0.365923 0.287054,-0.529167 0.744458,-0.529167 0.529167,0 0.661458,0.132292 0.661458,0.661458 0,0.485686 -0.159136,0.684049 -0.59885,0.74647 -0.386982,0.05494 -1.112438,0.779488 -2.05052,2.047963 -0.79842,1.079625 -1.451672,2.023635 -1.451672,2.097801 0,0.257558 3.673883,0.133321 3.836459,-0.129733 0.08994,-0.14552 0.469424,-0.264584 0.843304,-0.264584 0.945297,0 3.431328,-1.475525 3.604997,-2.13967 0.10269,-0.392703 0.316741,-0.523346 0.755211,-0.460948 0.749851,0.106707 0.943721,0.889252 0.375791,1.51682 -0.41287,0.456213 -1.203111,5.945063 -0.89961,6.248554 0.0755,0.07546 1.105119,-0.121859 2.288119,-0.438487 1.536459,-0.411228 2.19515,-0.715039 2.305741,-1.063478 0.19355,-0.6098 1.322609,-0.651581 1.55063,-0.05738 0.23994,0.625266 -0.366562,1.220035 -1.100942,1.079649 -0.821349,-0.157012 -4.35093,0.967071 -4.681357,1.490901 -0.311762,0.49425 1.359918,3.06729 2.537629,3.90589 0.835009,0.59458 0.94996,1.06853 0.374909,1.54578 -0.60207,0.49966 -1.560999,-0.12501 -1.36861,-0.89154 0.110101,-0.43866 -0.17195,-1.03071 -1.06086,-2.22692 -0.665959,-0.89617 -1.299729,-1.57446 -1.40838,-1.50731 -0.227139,0.14038 -4.513635,8.74737 -4.513079,9.06195 2.01e-4,0.11443 0.71402,0.41778 1.586264,0.67409 1.293333,0.38006 1.682959,0.40542 2.112025,0.13747 0.43529,-0.27184 0.601631,-0.25307 0.963459,0.10876 0.240531,0.24053 0.36526,0.62516 0.277162,0.85473 -0.193842,0.50514 -1.38983,0.55468 -1.684986,0.0698 -0.193542,-0.31796 -3.178455,-1.14069 -3.384046,-0.93274 -0.239829,0.24257 1.312148,3.339601 1.932807,3.856981 0.580795,0.48415 0.657013,0.677338 0.417547,1.05833 -0.319138,0.507749 -0.946724,0.72571 -1.241314,0.431121 z"
       inkscape:connector-curvature="0" />
    <text
       xml:space="preserve"
       style="font-style:normal;font-weight:normal;font-size:6.66993523px;line-height:1.25;font-family:sans-serif;letter-spacing:0px;word-spacing:0px;fill:#000000;fill-opacity:1;stroke:none;stroke-width:0.16674836"
       x="62.616375"
       y="59.323536"
       id="text166-0-7"><tspan
         sodipodi:role="line"
         x="62.616375"
         y="59.323536"
         style="fill:#000000;stroke-width:0.16674836"
         id="tspan168-62-4">collective.io</tspan></text>
    <text
       xml:space="preserve"
       style="font-style:normal;font-weight:normal;font-size:6.66993523px;line-height:1.25;font-family:sans-serif;letter-spacing:0px;word-spacing:0px;fill:#000000;fill-opacity:1;stroke:none;stroke-width:0.16674836"
       x="67.145576"
       y="53.055286"
       id="text166-3-6-5"><tspan
         sodipodi:role="line"
         x="67.145576"
         y="53.055286"
         style="fill:#000000;stroke-width:0.16674836"
         id="tspan168-6-1-2">edge</tspan></text>
    <circle
       style="fill:#ffffff;stroke-width:0.20946179"
       id="path359-20-4"
       cx="53.8885"
       cy="43.704632"
       r="0.4760738" />
    <circle
       style="fill:#ffffff;stroke-width:0.21681133"
       id="path359-30"
       cx="63.827587"
       cy="41.182281"
       r="0.49277815" />
    <circle
       style="fill:#ffffff;stroke-width:0.17271411"
       id="path359-9-7"
       cx="58.167507"
       cy="38.571037"
       r="0.39255208" />
    <circle
       style="fill:#ffffff;stroke-width:0.17271411"
       id="path359-2-8"
       cx="53.788273"
       cy="37.457214"
       r="0.39255208" />
    <circle
       style="fill:#ffffff;stroke-width:0.20211226"
       id="path359-0-6"
       cx="49.996387"
       cy="38.943893"
       r="0.45936945" />
    <circle
       style="fill:#ffffff;stroke-width:0.2315104"
       id="path359-23-8"
       cx="68.671844"
       cy="46.995388"
       r="0.52618682" />
    <circle
       style="fill:#ffffff;stroke-width:0.22379154"
       id="path359-7-8"
       cx="57.047649"
       cy="50.101566"
       r="0.50864303" />
    <circle
       style="fill:#ffffff;stroke-width:0.20211226"
       id="path359-5-4"
       cx="66.107727"
       cy="54.069691"
       r="0.45936945" />
    <circle
       style="fill:#ffffff;stroke-width:0.19962198"
       id="path359-92-3"
       cx="62.3344"
       cy="60.549961"
       r="0.45370942" />
    <circle
       style="fill:#ffffff;stroke-width:0.19442508"
       id="path359-28-1"
       cx="59.773746"
       cy="64.714233"
       r="0.44189769" />
    <circle
       style="fill:#ffffff;stroke-width:0.20741734"
       id="path359-97-4"
       cx="54.420773"
       cy="63.886936"
       r="0.47142708" />
    <circle
       style="fill:#ffffff;stroke-width:0.26458332"
       id="path359-3-9"
       cx="52.677437"
       cy="52.883678"
       r="0.60135639" />
    <circle
       style="fill:#ffffff;stroke-width:0.19962198"
       id="path359-6-2"
       cx="52.180191"
       cy="57.83408"
       r="0.45370942" />
    <circle
       style="fill:#ffffff;stroke-width:0.22048609"
       id="path359-1-0"
       cx="57.388065"
       cy="59.331554"
       r="0.50113034" />
    <circle
       style="fill:#ffffff;stroke-width:0.22560652"
       id="path359-29-6"
       cx="46.516579"
       cy="57.71632"
       r="0.51276821" />
    <circle
       style="fill:#ffffff;stroke-width:0.23340188"
       id="path359-31-8"
       cx="39.805305"
       cy="61.507168"
       r="0.53048587" />
    <circle
       style="fill:#ffffff;stroke-width:0.2152127"
       id="path359-94-9"
       cx="36.513535"
       cy="59.127224"
       r="0.48914471" />
    <circle
       style="fill:#ffffff;stroke-width:0.21781115"
       id="path359-78-2"
       cx="35.151714"
       cy="54.550396"
       r="0.49505058" />
    <circle
       style="fill:#ffffff;stroke-width:0.26458332"
       id="path359-4-6"
       cx="40.627033"
       cy="56.071346"
       r="0.60135639" />
    <circle
       style="fill:#ffffff;stroke-width:0.26458332"
       id="path359-50-6"
       cx="39.046692"
       cy="49.876896"
       r="0.60135639" />
    <circle
       style="fill:#ffffff;stroke-width:0.19843748"
       id="path359-36-4"
       cx="44.124817"
       cy="51.981632"
       r="0.45101729" />
    <circle
       style="fill:#ffffff;stroke-width:0.21313657"
       id="path359-10-9"
       cx="33.951862"
       cy="47.588398"
       r="0.48442596" />
    <circle
       style="fill:#ffffff;stroke-width:0.26458332"
       id="path359-63-5"
       cx="40.516674"
       cy="45.066036"
       r="0.60135639" />
    <circle
       style="fill:#ffffff;stroke-width:0.21313655"
       id="path359-61-0"
       cx="59.35918"
       cy="43.880032"
       r="0.48442596" />
    <circle
       style="fill:#ffffff;stroke-width:0.26458332"
       id="path359-55-4"
       cx="62.900494"
       cy="49.008266"
       r="0.60135639" />
    <circle
       style="fill:#ffffff;stroke-width:0.1616898"
       id="path359-47-8"
       cx="42.120289"
       cy="38.584755"
       r="0.36749554" />
    <circle
       style="fill:#ffffff;stroke-width:0.19843748"
       id="path359-65-7"
       cx="36.992058"
       cy="38.367599"
       r="0.45101729" />
    <circle
       style="fill:#ffffff;stroke-width:0.19108795"
       id="path359-69-1"
       cx="34.00198"
       cy="42.493568"
       r="0.43431294" />
    <path
       id="path139-6-3-5"
       style="fill:#000000;stroke-width:0.26458341"
       d="m 60.43813,87.930997 c 0.16559,-1.626464 0.25776,-3.00052 0.204819,-3.053461 -0.117218,-0.117222 -1.969198,0.923521 -2.610337,1.466915 -0.254661,0.215837 -0.46302,0.553728 -0.46302,0.750867 0,0.393742 2.152218,3.778529 2.408208,3.787378 0.0876,0.003 0.294741,-1.325237 0.46033,-2.951699 z m -23.459182,2.361892 c 0.237811,-0.909505 0.378273,-1.709069 0.312136,-1.776807 -0.135633,-0.13892 -4.340364,1.284592 -4.678602,1.583941 -0.229519,0.20313 2.836869,1.787704 3.531532,1.824934 0.277222,0.0149 0.537165,-0.49326 0.834934,-1.632068 z m 3.921893,3.872718 c 0,-0.31921 -2.759134,-5.394072 -2.932684,-5.394072 -0.09746,0 -0.361256,0.730697 -0.586222,1.623769 -0.500319,1.986183 -0.3719,2.237043 1.629233,3.182733 1.590986,0.75186 1.889673,0.84474 1.889673,0.58757 z m 9.372753,-0.43313 c 0.570204,-4.429288 0.722388,-6.344215 0.517909,-6.516835 -0.371795,-0.313866 -11.773958,0.271631 -11.66484,0.598986 0.113073,0.339219 10.244409,6.997229 10.687654,7.023609 0.175726,0.0105 0.378397,-0.4775 0.459277,-1.10576 z m -1.051607,1.42539 c -0.449551,-0.40823 -10.245502,-6.650915 -10.436546,-6.650915 -0.245008,0 2.394524,5.132065 2.701485,5.252515 0.130544,0.0512 0.446481,0.31762 0.70208,0.59197 0.359245,0.3856 1.061512,0.55138 3.09401,0.73038 3.717215,0.32738 4.226563,0.33721 3.938971,0.076 z m -5.603164,4.56582 c 0.216056,-0.21605 -1.707533,-4.07298 -2.031345,-4.07298 -0.140611,0 -0.502657,-0.23205 -0.804545,-0.51566 -0.301888,-0.28361 -1.235985,-0.81952 -2.075768,-1.19091 -1.327712,-0.58718 -1.547628,-0.62119 -1.685956,-0.26071 -0.200705,0.52303 1.134926,4.04051 1.80042,4.74153 0.729046,0.76797 4.348164,1.747763 4.797194,1.29873 z m 5.865973,0.10147 c 0.52252,-0.746 0.520697,-2.81683 -0.0031,-3.513 -0.338745,-0.45022 -0.893044,-0.56897 -3.715573,-0.79597 -1.824587,-0.14675 -3.362525,-0.22172 -3.417641,-0.16661 -0.127496,0.1275 1.331658,3.07052 2.083313,4.20192 0.560478,0.843633 0.604362,0.858123 2.605597,0.859893 1.804619,0.002 2.08224,-0.0649 2.447396,-0.586233 z m 8.052202,-2.80265 c 2.614342,-5.21904 2.613263,-5.24326 -0.414047,-9.287257 -0.280123,-0.374198 -0.462521,0.760063 -1.529961,9.514217 -0.442397,3.628133 -0.465563,3.957483 -0.278363,3.957483 0.06946,0 1.069522,-1.883003 2.222371,-4.184443 z m -1.932306,-3.14903 c 0.387049,-3.233041 0.625131,-6.191401 0.529072,-6.574132 -0.174067,-0.693537 -0.18106,-0.695258 -2.081393,-0.512458 -1.048706,0.100881 -2.044653,0.320805 -2.213216,0.488721 -0.32893,0.327669 -1.308991,7.509279 -1.058906,7.759359 0.23234,0.23234 2.820592,-1.76406 2.820592,-2.17562 0,-0.62126 0.916871,-0.94309 1.484805,-0.52118 0.399489,0.29678 0.440499,0.46699 0.204708,0.84964 -0.162176,0.26319 -0.538299,0.48226 -0.835829,0.48683 -0.746378,0.0115 -3.172992,1.71062 -3.336624,2.33635 -0.09046,0.34594 0.35411,1.14884 1.373016,2.47966 0.82874,1.08244 1.625862,2.140183 1.771383,2.350543 0.386097,0.55813 0.532239,-0.20042 1.342392,-6.967713 z m -1.482221,7.664203 c -0.0041,-0.10914 -0.867348,-1.27 -1.918229,-2.579693 l -1.910693,-2.38124 -0.08138,1.42976 c -0.126115,2.215603 0.243924,2.816443 2.022182,3.283463 1.850545,0.48601 1.897408,0.49216 1.888124,0.24771 z m -13.574138,0.66146 c 1.357969,-0.76398 2.469067,-1.45923 2.469105,-1.54498 1.52e-4,-0.34085 -4.056762,-1.270773 -4.502709,-1.032113 -0.56769,0.30382 -1.132956,3.966153 -0.612161,3.966153 0.0972,0 1.287794,-0.62508 2.645765,-1.38906 z m 16.148461,5.98432 c -0.102044,-0.10205 -0.185536,-0.52052 -0.185536,-0.92995 0,-0.94158 -1.321925,-4.19676 -1.700605,-4.18765 -0.454136,0.0109 -2.135854,2.6764 -2.135854,3.38528 0,0.91853 -0.840143,1.3954 -1.32024,0.74936 -0.411596,-0.55385 -0.257373,-1.23105 0.280356,-1.23105 0.19729,0 0.848396,-0.72109 1.446902,-1.60243 0.841989,-1.23989 1.020841,-1.68359 0.790504,-1.96113 -0.386839,-0.46611 -2.814153,-1.0768 -3.882969,-0.97691 -0.45835,0.0428 -0.911861,-0.0491 -1.007802,-0.20436 -0.226555,-0.36658 -4.289359,-0.37279 -4.515486,-0.007 -0.09359,0.15144 -0.386418,0.20671 -0.650717,0.12282 -0.622575,-0.19759 -5.402511,2.45347 -5.722278,3.17371 -0.314171,0.70763 -1.513786,0.72035 -1.649147,0.0175 -0.0542,-0.28143 0.107771,-0.66254 0.359927,-0.84692 0.314086,-0.22967 0.515465,-0.88591 0.639449,-2.08378 0.09954,-0.9617 0.112949,-1.790593 0.0298,-1.841983 -0.312127,-0.1929 -2.657673,1.782863 -2.657673,2.238693 0,0.53912 -0.59885,0.85489 -1.190627,0.6278 -0.478395,-0.18358 -0.534328,-1.40691 -0.06615,-1.44672 0.181902,-0.0155 0.509323,-0.0452 0.727604,-0.0661 0.440392,-0.0422 2.883803,-1.786023 2.9001,-2.069773 0.0119,-0.20718 -2.776101,-1.05652 -3.405151,-1.03734 -0.231545,0.007 -0.718647,0.0457 -1.082449,0.0858 -0.539847,0.0595 -0.676251,-0.0546 -0.741917,-0.62088 -0.106981,-0.92252 0.701049,-1.26649 1.283987,-0.54659 0.419864,0.51851 2.886214,1.37268 3.963496,1.37268 0.51,0 0.566978,-0.10344 0.431131,-0.78267 -0.08609,-0.43046 -0.560541,-1.65085 -1.054329,-2.71198 -0.493788,-1.06112 -0.959207,-2.10882 -1.034264,-2.32823 -0.175407,-0.51275 -2.703454,-1.45316 -3.906436,-1.45316 -0.811389,0 -0.926042,-0.08189 -0.926042,-0.661458 0,-0.555301 0.129607,-0.665705 0.80757,-0.687917 0.677879,-0.02221 5.410139,-1.623796 5.410139,-1.831008 0,-0.249401 -4.464354,-1.797072 -5.247727,-1.819245 -0.765279,-0.02166 -0.969982,-0.133043 -0.969982,-0.527786 0,-0.275182 0.215819,-0.632369 0.479597,-0.79375 0.388892,-0.237925 0.571957,-0.180947 0.967947,0.30127 0.488364,0.594705 4.672481,2.369314 4.94463,2.097166 0.228295,-0.228295 -2.349329,-4.940814 -2.702495,-4.940814 -0.485288,0 -0.939826,-0.676792 -0.76337,-1.136632 0.380224,-0.990847 1.878369,-0.617447 1.611845,0.401738 -0.07316,0.279774 0.394941,1.488353 1.083177,2.796609 1.386028,2.634682 1.344557,2.569968 1.528833,2.385691 0.340921,-0.340919 1.167652,-3.972442 1.11276,-4.887931 -0.05521,-0.920762 5e-5,-1.014683 0.596995,-1.014683 0.778934,0 1.073869,0.863253 0.450634,1.318974 -0.425731,0.311304 -1.716702,4.775572 -1.456296,5.035977 0.08334,0.08334 2.338818,0.02709 5.012176,-0.124996 2.673358,-0.152088 5.310872,-0.276592 5.861142,-0.276677 1.549324,-2.37e-4 1.524603,-0.57962 -0.09911,-2.322832 -0.775502,-0.832579 -1.682517,-1.62606 -2.015589,-1.763291 -0.697835,-0.287523 -0.836854,-1.398142 -0.205342,-1.640476 0.525043,-0.201478 1.187255,0.364135 1.187255,1.014065 0,0.590765 2.629059,3.695645 2.95744,3.492695 0.119658,-0.07395 0.21756,-1.031083 0.21756,-2.126955 0,-1.724391 -0.07714,-2.05496 -0.573288,-2.456717 -0.784517,-0.635263 -0.483877,-1.405849 0.504053,-1.291966 l 0.727522,0.08387 -0.08378,3.042708 -0.08378,3.042709 1.457571,-1.984375 c 0.801664,-1.091407 1.494921,-2.222501 1.54057,-2.513542 0.05739,-0.365923 0.287054,-0.529167 0.744458,-0.529167 0.529167,0 0.661458,0.132292 0.661458,0.661458 0,0.485686 -0.159136,0.684049 -0.59885,0.74647 -0.386982,0.05494 -1.112438,0.779488 -2.05052,2.047963 -0.79842,1.079625 -1.451672,2.023635 -1.451672,2.097801 0,0.257558 3.673883,0.133321 3.836459,-0.129733 0.08994,-0.14552 0.469424,-0.264584 0.843304,-0.264584 0.945297,0 3.431328,-1.475525 3.604997,-2.13967 0.10269,-0.392703 0.316741,-0.523346 0.755211,-0.460948 0.749851,0.106707 0.943721,0.889252 0.375791,1.51682 -0.41287,0.456213 -1.203111,5.945063 -0.89961,6.248554 0.0755,0.07546 1.105119,-0.121859 2.288119,-0.438487 1.536459,-0.411228 2.19515,-0.715039 2.305741,-1.063478 0.19355,-0.6098 1.322609,-0.651581 1.55063,-0.05738 0.23994,0.625266 -0.366562,1.220035 -1.100942,1.079649 -0.821349,-0.157012 -4.35093,0.967071 -4.681357,1.490901 -0.311762,0.49425 1.359918,3.06729 2.537629,3.90589 0.835009,0.59458 0.94996,1.06853 0.374909,1.54578 -0.60207,0.49966 -1.560999,-0.12501 -1.36861,-0.89154 0.110101,-0.43866 -0.17195,-1.03071 -1.06086,-2.22692 -0.665959,-0.89617 -1.299729,-1.57446 -1.40838,-1.50731 -0.227139,0.14038 -4.513635,8.747373 -4.513079,9.061953 2.01e-4,0.11443 0.71402,0.41778 1.586264,0.67409 1.293333,0.38006 1.682959,0.40542 2.112025,0.13747 0.43529,-0.27184 0.601631,-0.25307 0.963459,0.10876 0.240531,0.24053 0.36526,0.62516 0.277162,0.85473 -0.193842,0.50514 -1.38983,0.55468 -1.684986,0.0698 -0.193542,-0.31796 -3.178455,-1.14069 -3.384046,-0.93274 -0.239829,0.24257 1.312148,3.3396 1.932807,3.85698 0.580795,0.48415 0.657013,0.67734 0.417547,1.05833 -0.319138,0.50775 -0.946724,0.72571 -1.241314,0.43112 z"
       inkscape:connector-curvature="0" />
    <circle
       style="fill:#ffffff;stroke-width:0.20946179"
       id="path359-20-4-1"
       cx="51.3339"
       cy="86.490486"
       r="0.4760738" />
    <circle
       style="fill:#ffffff;stroke-width:0.21681133"
       id="path359-30-8"
       cx="61.272987"
       cy="83.96814"
       r="0.49277815" />
    <circle
       style="fill:#ffffff;stroke-width:0.17271413"
       id="path359-9-7-9"
       cx="55.612907"
       cy="81.356895"
       r="0.39255208" />
    <circle
       style="fill:#ffffff;stroke-width:0.17271413"
       id="path359-2-8-6"
       cx="51.233673"
       cy="80.243073"
       r="0.39255208" />
    <circle
       style="fill:#ffffff;stroke-width:0.20211226"
       id="path359-0-6-4"
       cx="47.441788"
       cy="81.729752"
       r="0.45936945" />
    <circle
       style="fill:#ffffff;stroke-width:0.2315104"
       id="path359-23-8-3"
       cx="66.117241"
       cy="89.781242"
       r="0.52618682" />
    <circle
       style="fill:#ffffff;stroke-width:0.22379155"
       id="path359-7-8-3"
       cx="54.49305"
       cy="92.887421"
       r="0.50864303" />
    <circle
       style="fill:#ffffff;stroke-width:0.20211226"
       id="path359-5-4-3"
       cx="63.553127"
       cy="96.855545"
       r="0.45936945" />
    <circle
       style="fill:#ffffff;stroke-width:0.19962198"
       id="path359-92-3-8"
       cx="59.7798"
       cy="103.33582"
       r="0.45370942" />
    <circle
       style="fill:#ffffff;stroke-width:0.19442509"
       id="path359-28-1-6"
       cx="57.219147"
       cy="107.50009"
       r="0.44189769" />
    <circle
       style="fill:#ffffff;stroke-width:0.20741734"
       id="path359-97-4-0"
       cx="51.866173"
       cy="106.67279"
       r="0.47142708" />
    <circle
       style="fill:#ffffff;stroke-width:0.26458332"
       id="path359-3-9-4"
       cx="50.122837"
       cy="95.669533"
       r="0.60135639" />
    <circle
       style="fill:#ffffff;stroke-width:0.19962198"
       id="path359-6-2-8"
       cx="49.625591"
       cy="100.61993"
       r="0.45370942" />
    <circle
       style="fill:#ffffff;stroke-width:0.22048609"
       id="path359-1-0-8"
       cx="54.833466"
       cy="102.11741"
       r="0.50113034" />
    <circle
       style="fill:#ffffff;stroke-width:0.22560652"
       id="path359-29-6-8"
       cx="43.961979"
       cy="100.50217"
       r="0.51276821" />
    <circle
       style="fill:#ffffff;stroke-width:0.23340188"
       id="path359-31-8-9"
       cx="37.250706"
       cy="104.29302"
       r="0.53048587" />
    <circle
       style="fill:#ffffff;stroke-width:0.2152127"
       id="path359-94-9-7"
       cx="33.958935"
       cy="101.91308"
       r="0.48914471" />
    <circle
       style="fill:#ffffff;stroke-width:0.21781115"
       id="path359-78-2-7"
       cx="32.597115"
       cy="97.33625"
       r="0.49505058" />
    <circle
       style="fill:#ffffff;stroke-width:0.26458332"
       id="path359-4-6-6"
       cx="38.072433"
       cy="98.857201"
       r="0.60135639" />
    <circle
       style="fill:#ffffff;stroke-width:0.26458332"
       id="path359-50-6-4"
       cx="36.492092"
       cy="92.66275"
       r="0.60135639" />
    <circle
       style="fill:#ffffff;stroke-width:0.19843748"
       id="path359-36-4-3"
       cx="41.570217"
       cy="94.767487"
       r="0.45101729" />
    <circle
       style="fill:#ffffff;stroke-width:0.21313657"
       id="path359-10-9-0"
       cx="31.397263"
       cy="90.374252"
       r="0.48442596" />
    <circle
       style="fill:#ffffff;stroke-width:0.26458332"
       id="path359-63-5-3"
       cx="37.962074"
       cy="87.851891"
       r="0.60135639" />
    <circle
       style="fill:#ffffff;stroke-width:0.21313655"
       id="path359-61-0-0"
       cx="56.804581"
       cy="86.665886"
       r="0.48442596" />
    <circle
       style="fill:#ffffff;stroke-width:0.26458332"
       id="path359-55-4-9"
       cx="60.345894"
       cy="91.794121"
       r="0.60135639" />
    <circle
       style="fill:#ffffff;stroke-width:0.1616898"
       id="path359-47-8-2"
       cx="39.565689"
       cy="81.370613"
       r="0.36749554" />
    <circle
       style="fill:#ffffff;stroke-width:0.19843748"
       id="path359-65-7-5"
       cx="34.437458"
       cy="81.153458"
       r="0.45101729" />
    <circle
       style="fill:#ffffff;stroke-width:0.19108795"
       id="path359-69-1-4"
       cx="31.44738"
       cy="85.279427"
       r="0.43431294" />
    <path
       style="fill:#ffffff;stroke:none;stroke-width:0.26458332px;stroke-linecap:butt;stroke-linejoin:miter;stroke-opacity:1"
       d="m 61.20472,92.00427 -0.968851,0.885331 2.555764,4.911076 2.706105,-0.317381 -0.918739,-1.520094 z"
       id="path1343"
       inkscape:connector-curvature="0" />
    <text
       xml:space="preserve"
       style="font-style:normal;font-weight:normal;font-size:5.07291317px;line-height:1.25;font-family:sans-serif;letter-spacing:0px;word-spacing:0px;fill:#000000;fill-opacity:1;stroke:none;stroke-width:0.12682281"
       x="58.260777"
       y="101.27417"
       id="text166-0-7-3"><tspan
         sodipodi:role="line"
         x="58.260777"
         y="101.27417"
         style="fill:#000000;stroke-width:0.12682281"
         id="tspan168-62-4-8">collective.io</tspan></text>
    <text
       xml:space="preserve"
       style="font-style:normal;font-weight:normal;font-size:5.07291317px;line-height:1.25;font-family:sans-serif;letter-spacing:0px;word-spacing:0px;fill:#000000;fill-opacity:1;stroke:none;stroke-width:0.12682281"
       x="60.608772"
       y="96.467628"
       id="text166-3-6-5-8"><tspan
         sodipodi:role="line"
         x="60.608772"
         y="96.467628"
         style="fill:#000000;stroke-width:0.12682281"
         id="tspan168-6-1-2-3">edge</tspan></text>
  </g>
</svg>
